<?xml version="1.0" standalone="no"?>
<!DOCTYPE svg PUBLIC "-//W3C//DTD SVG 20010904//EN"
 "http://www.w3.org/TR/2001/REC-SVG-20010904/DTD/svg10.dtd">
<svg version="1.0" xmlns="http://www.w3.org/2000/svg"
 width="512.000000pt" height="512.000000pt" viewBox="0 0 512.000000 512.000000"
 preserveAspectRatio="xMidYMid meet">
<metadata>
Created by potrace 1.14, written by Peter Selinger 2001-2017
</metadata>
<g transform="translate(0.000000,512.000000) scale(0.100000,-0.100000)"
fill="#000000" stroke="none">
<path d="M1536 4528 c-43 -39 -57 -113 -52 -278 3 -80 7 -154 9 -165 2 -11 8
-42 11 -68 4 -27 9 -59 12 -70 8 -39 12 -61 29 -156 13 -69 16 -121 12 -195
-8 -136 -18 -165 -67 -196 -22 -13 -60 -43 -85 -67 -25 -23 -77 -68 -115 -99
-63 -50 -82 -77 -85 -119 -1 -5 4 -30 10 -55 6 -25 9 -58 5 -75 -18 -87 6
-234 56 -343 13 -28 24 -55 25 -60 0 -4 5 -15 10 -24 9 -17 12 -176 5 -240
-21 -173 -73 -291 -177 -403 -21 -22 -48 -53 -60 -70 -13 -16 -26 -32 -29 -35
-3 -3 -20 -27 -37 -55 -170 -272 -156 -531 42 -793 30 -40 56 -84 58 -97 6
-48 43 -83 110 -104 52 -16 85 -19 202 -16 77 2 149 5 160 8 67 16 123 18 127
5 8 -19 105 -66 158 -76 54 -10 125 1 146 23 8 8 19 15 24 15 5 0 16 18 26 40
14 32 22 38 39 34 63 -16 135 -4 209 33 64 32 157 125 188 189 54 106 63 150
63 294 -1 148 -11 201 -72 375 -71 201 -117 310 -222 527 -29 58 -60 135 -70
170 -21 75 -27 199 -12 254 32 123 43 205 37 285 -7 84 -43 220 -78 296 l-23
48 43 90 c87 179 145 345 179 515 29 147 29 348 0 464 -37 152 -86 199 -133
129 -21 -31 -66 -156 -78 -218 -4 -16 -9 -41 -12 -55 -3 -14 -16 -95 -29 -180
-24 -157 -47 -253 -112 -482 l-36 -127 -64 24 c-35 14 -68 27 -72 29 -5 3 -5
27 -1 53 18 113 27 442 16 538 -2 17 -7 58 -10 93 -9 89 -51 247 -77 290 -32
53 -49 71 -91 98 -47 30 -80 30 -112 2z"/>
<path d="M3613 3616 c-16 -14 -35 -42 -41 -63 -14 -48 -9 -156 13 -247 21 -89
27 -152 26 -256 0 -108 -19 -177 -47 -171 -33 7 -118 6 -150 -1 l-31 -7 2 112
c1 61 -2 134 -7 162 -4 27 -10 64 -12 80 -26 157 -135 329 -241 380 -39 18
-105 25 -127 13 -32 -16 -51 -69 -51 -138 0 -78 18 -139 83 -285 61 -135 124
-374 115 -434 -3 -24 -88 -137 -122 -162 -48 -36 -58 -63 -57 -148 1 -82 23
-147 70 -208 35 -46 52 -93 48 -128 -2 -16 -35 -93 -73 -170 -76 -151 -91
-196 -72 -219 10 -12 7 -18 -18 -31 -52 -26 -101 -76 -129 -129 -21 -42 -27
-66 -28 -136 -3 -111 20 -200 88 -338 29 -59 54 -110 56 -114 2 -4 -9 -5 -25
-4 -15 2 -36 0 -45 -5 -20 -11 -42 -72 -34 -96 7 -22 195 -119 256 -133 90
-19 168 -7 211 33 l24 22 34 -19 c29 -17 51 -20 137 -18 l102 1 -5 -37 c-5
-42 15 -98 45 -126 30 -26 92 -32 135 -11 43 20 67 72 67 144 l0 50 57 16 c32
9 74 25 95 36 20 10 46 19 56 19 74 0 195 73 204 125 6 28 -21 55 -55 55 -10
0 -15 4 -12 10 3 5 8 18 11 27 2 10 16 61 30 113 59 222 28 397 -95 542 -26
31 -54 71 -61 89 -7 19 -44 86 -81 149 -38 63 -75 136 -82 161 -16 54 -14 161
4 216 13 39 17 165 7 218 -8 44 -35 120 -59 167 -19 37 -20 46 -9 81 13 45 18
66 26 117 3 19 7 46 10 60 10 52 12 318 3 380 -26 179 -80 264 -176 276 -33 4
-46 0 -70 -20z"/>
</g>
</svg>
